<?xml version="1.0" standalone="no"?>
<!DOCTYPE svg PUBLIC "-//W3C//DTD SVG 20010904//EN"
 "http://www.w3.org/TR/2001/REC-SVG-20010904/DTD/svg10.dtd">
<svg version="1.0" xmlns="http://www.w3.org/2000/svg"
 width="32.000000pt" height="32.000000pt" viewBox="0 0 32.000000 32.000000"
 preserveAspectRatio="xMidYMid meet">

<g transform="translate(0.000000,32.000000) scale(0.100000,-0.100000)"
fill="#000000" stroke="none">
<path d="M4 307 c-2 -7 -3 -78 -2 -157 l3 -145 155 0 155 0 0 155 0 155 -153
3 c-119 2 -154 0 -158 -11z m119 -62 l13 -45 12 45 c22 84 69 43 88 -76 6 -33
4 -41 -7 -37 -8 3 -17 27 -22 57 -4 29 -11 60 -16 69 -7 13 -10 13 -19 -4 -5
-10 -13 -45 -17 -77 l-7 -58 72 3 c53 2 73 -1 80 -12 13 -20 4 -28 -25 -22
-22 4 -25 1 -25 -28 0 -37 -23 -37 -28 0 -4 24 -32 60 -32 41 0 -6 -9 -11 -20
-11 -13 0 -20 -7 -20 -20 0 -11 -7 -20 -15 -20 -8 0 -15 9 -15 20 0 16 -7 20
-34 20 -30 0 -35 -4 -38 -27 -2 -14 -9 -28 -15 -31 -16 -5 -17 43 -2 123 25
137 66 177 92 90z"/>
<path d="M72 235 c-15 -61 -24 -132 -14 -117 13 20 19 19 36 -3 8 -11 18 -17
22 -12 4 4 1 7 -7 7 -11 0 -11 2 -1 8 16 10 6 113 -13 139 -12 16 -14 13 -23
-22z"/>
</g>
</svg>
